SplineFontDB: 3.0
FontName: TauntonSwank
FullName: Taunton Swank
FamilyName: TauntonSwank
Weight: Regular
Copyright: Copyright (c) 2015, Terrence Curran
UComments: "2015-5-25: Created with FontForge (http://fontforge.org)"
Version: 001.000
ItalicAngle: 0
UnderlinePosition: -100
UnderlineWidth: 50
Ascent: 800
Descent: 200
InvalidEm: 0
LayerCount: 2
Layer: 0 0 "Back" 1
Layer: 1 0 "Fore" 0
XUID: [1021 270 -1463357204 2819058]
FSType: 0
OS2Version: 0
OS2_WeightWidthSlopeOnly: 0
OS2_UseTypoMetrics: 1
CreationTime: 1432540265
ModificationTime: 1433460320
PfmFamily: 17
TTFWeight: 400
TTFWidth: 5
LineGap: 90
VLineGap: 0
OS2TypoAscent: 0
OS2TypoAOffset: 1
OS2TypoDescent: 0
OS2TypoDOffset: 1
OS2TypoLinegap: 90
OS2WinAscent: 0
OS2WinAOffset: 1
OS2WinDescent: 0
OS2WinDOffset: 1
HheadAscent: 0
HheadAOffset: 1
HheadDescent: 0
HheadDOffset: 1
OS2CapHeight: 0
OS2XHeight: 0
OS2Vendor: 'GRIL'
MarkAttachClasses: 1
DEI: 91125

StartChar: W
Encoding: 87 87 0
Width: 536
VWidth: 0
Flags: W
HStem: -3 82<129.962 220.129 307.9 399.038> 571 20G<45 126 224 305 403 484>
VStem: 45 81<83.4075 591> 224 81<82.7598 591> 403 81<83.4075 591>
CounterMasks: 1 38
LayerCount: 2
Back
Fore
SplineSet
265 19 m 1
 246 4 220 -3 188 -3 c 1
 162 -3 l 1
 89 -3 45 36 45 114 c 10
 45 591 l 17
 126 591 l 9
 126 123 l 2
 127 91 134 79 171 79 c 0
 212 79 224 89 224 123 c 2
 224 591 l 17
 305 591 l 1
 305 123 l 2
 305 91 313 79 350 79 c 0
 391 79 403 89 403 123 c 2
 403 591 l 17
 484 591 l 9
 484 114 l 18
 484 36 440 -3 367 -3 c 1
 341 -3 l 1
 309 -3 284 4 265 19 c 1
EndSplineSet
Validated: 1
EndChar

StartChar: S
Encoding: 83 83 1
Width: 342
VWidth: 0
Flags: W
VStem: 20 294
LayerCount: 2
Back
Fore
SplineSet
125 296 m 1
 76 400 l 2
 57 441 56 476 96 503 c 2
 270 620 l 1
 314 558 l 1
 149 447 l 2
 141 442 143 435 146 428 c 2
 205 305 l 1
 258 193 l 6
 277 152 278 117 238 90 c 6
 64 -27 l 5
 20 35 l 5
 185 146 l 6
 193 151 191 158 188 165 c 6
 125 296 l 1
EndSplineSet
Validated: 33
EndChar

StartChar: A
Encoding: 65 65 2
Width: 480
VWidth: 0
Flags: W
HStem: 193 93<51 87.1348 167.815 304.184 385.469 419> 512 82<175.12 297.035>
VStem: 87 81<0 193 286 501.194> 304 81<0 193 286 504.422>
LayerCount: 2
Back
Fore
SplineSet
167.409179688 286 m 1
 304.212890625 286 l 1
 304 468 l 6
 304 502 279.09765625 512 236 512 c 4
 193.916015625 512 168 500 168 468 c 6
 167.409179688 286 l 1
385.46875 193 m 1
 385 0 l 1
 304 0 l 1
 304.18359375 193 l 1
 167.815429688 193 l 1
 168 0 l 1
 87 0 l 1
 87.134765625 193 l 1
 11 193 l 9
 51 286 l 17
 87.5 286 l 1
 87 477 l 6
 87 555 131.498046875 594 204 594 c 5
 268 594 l 5
 341 594 385 555 385 477 c 6
 385 286 l 1
 459 286 l 9
 419 193 l 17
 385.46875 193 l 1
EndSplineSet
Validated: 1
EndChar

StartChar: N
Encoding: 78 78 3
Width: 430
VWidth: 0
Flags: W
HStem: 512 82<171.523 278.146>
VStem: 284 81<468 504.422>
LayerCount: 2
Back
Fore
SplineSet
67 508.770507812 m 1
 47.083984375 489.375976562 31.04296875 470.626953125 19 457 c 1
 67 403.212890625 l 1
 67 0 l 1
 148 0 l 1
 148 473.890625 l 1
 176.0234375 495.353515625 205.515625 512 230 512 c 0
 260 512 284 502 284 468 c 2
 284 0 l 1
 365 0 l 1
 365 477 l 2
 365 555 321 594 248 594 c 0
 211.005859375 594 178.280273438 583.354492188 148 567.5 c 1
 148 594 l 1
 67 594 l 1
 67 508.770507812 l 1
EndSplineSet
Validated: 9
EndChar

StartChar: K
Encoding: 75 75 4
Width: 490
VWidth: 0
Flags: W
HStem: -3 21G<95 176 305 386> 193 93<208 296.12> 571 20G<95 176 318.51 446>
VStem: 95 81<-3 193 387 591> 305 81<-3 185.896>
LayerCount: 2
Back
Fore
SplineSet
95 282 m 1
 95 591 l 1
 176 591 l 1
 176 387 l 1
 334 591 l 1
 446 591 l 1
 208 286 l 1
 282 286 l 2
 332 286 386 250 386 195 c 2
 386 -3 l 1
 305 -3 l 1
 305 145 l 2
 305 165 287 193 262 193 c 2
 176 193 l 1
 176 -3 l 1
 95 -3 l 1
 95 193 l 1
 26 193 l 1
 95 282 l 1
EndSplineSet
Validated: 1
EndChar

StartChar: L
Encoding: 76 76 5
Width: 378
VWidth: 0
Flags: W
HStem: -3 93<81 95 176 349>
VStem: 95 81<90 591>
LayerCount: 2
Back
Fore
SplineSet
176 90 m 5
 389 90 l 9
 349 -3 l 17
 41 -3 l 9
 81 90 l 17
 95 90 l 5
 95 591 l 5
 176 591 l 5
 176 90 l 5
EndSplineSet
Validated: 1
EndChar

StartChar: M
Encoding: 77 77 6
Width: 630
VWidth: 0
Flags: W
HStem: 512 82<171.523 279.148 388.6 495.146>
VStem: 501 81<468 504.422>
LayerCount: 2
Back
Fore
SplineSet
345.243164062 551.299804688 m 1
 325.617238317 579.766697565 292.100488012 594 248 594 c 0
 211.005859375 594 178.280273438 583.354492188 148 567.5 c 1
 148 594 l 1
 67 594 l 1
 67 508.770507812 l 1
 47.083984375 489.375976562 31.04296875 470.626953125 19 457 c 1
 67 403.212890625 l 1
 67 0 l 1
 148 0 l 1
 148 473.890625 l 1
 176.0234375 495.353515625 205.515625 512 230 512 c 0
 260 512 284 502 284 468 c 2
 284 0 l 1
 365 0 l 1
 365 473.890625 l 1
 393.0234375 495.353515625 422.515625 512 447 512 c 0
 477 512 501 502 501 468 c 2
 501 0 l 1
 582 0 l 1
 582 477 l 2
 582 555 538 594 465 594 c 0
 428.005859375 594 388 586 345.243164062 551.299804688 c 1
EndSplineSet
Validated: 9
EndChar

StartChar: E
Encoding: 69 69 7
Width: 378
VWidth: 0
Flags: W
HStem: -3 93<81 95 176 349> 267 93<177 259> 487 93<81 95 176 349> 571 20G<95 176>
VStem: 95 81<90 267 360 487 580 591>
LayerCount: 2
Back
Fore
SplineSet
95 487 m 5xe8
 41 487 l 5
 81 580 l 5
 95 580 l 5xe8
 95 591 l 5
 176 591 l 5xd8
 176 580 l 5
 389 580 l 5
 349 487 l 5
 176 487 l 5
 177 360 l 5
 299 360 l 13
 259 267 l 21
 176 267 l 5
 176 90 l 5
 389 90 l 13
 349 -3 l 21
 41 -3 l 13
 81 90 l 21
 95 90 l 5
 95 487 l 5xe8
EndSplineSet
Validated: 1
EndChar

StartChar: F
Encoding: 70 70 8
Width: 378
VWidth: 0
Flags: W
HStem: 267 93<176 259> 487 93<81 95 176 349>
VStem: 95 81<-3 267 360 487 580 591>
LayerCount: 2
Back
Fore
SplineSet
176 -3 m 1
 95 -3 l 1
 95 487 l 1
 41 487 l 1
 81 580 l 1
 95 580 l 1
 95 591 l 1
 176 591 l 1
 176 580 l 1
 389 580 l 1
 349 487 l 1
 176 487 l 1
 176 360 l 5
 299 360 l 13
 259 267 l 21
 176 267 l 5
 176 -3 l 1
EndSplineSet
Validated: 1
EndChar

StartChar: I
Encoding: 73 73 9
Width: 378
VWidth: 0
Flags: W
LayerCount: 2
Back
Fore
SplineSet
248 498 m 1
 349 498 l 1
 389 591 l 1
 81 591 l 1
 41 498 l 1
 167 498 l 1
 167 90 l 1
 81 90 l 9
 41 -3 l 17
 349 -3 l 9
 389 90 l 17
 248 90 l 1
 248 498 l 1
EndSplineSet
Validated: 9
EndChar

StartChar: J
Encoding: 74 74 10
Width: 436
VWidth: 0
Flags: HW
HStem: -3 82<114.931 202.035>
VStem: 209 81<87.5352 122>
LayerCount: 2
Back
Fore
SplineSet
102 133 m 1
 24 102 l 1
 42 34 70.498046875 -3 143 -3 c 1
 173 -3 l 1
 246 -3 290 37 290 115 c 1
 290 498 l 1
 391 498 l 1
 431 591 l 1
 123 591 l 1
 83 498 l 1
 209 498 l 1
 209 122 l 1
 209 88 176 79 154 79 c 0
 131 79 108 95 102 133 c 1
EndSplineSet
EndChar

StartChar: H
Encoding: 72 72 11
Width: 441
VWidth: 0
Flags: W
HStem: -3 21G<65 146 305 386> 193 93<51 65 146 305 386 399> 571 20G<65 146 305 386>
VStem: 65 81<-3 193 286 591> 305 81<-3 193 286 591>
LayerCount: 2
Back
Fore
SplineSet
305 193 m 5
 146 193 l 5
 146 -3 l 1
 65 -3 l 1
 65 193 l 1
 11 193 l 1
 51 286 l 1
 65 286 l 1
 65 591 l 1
 146 591 l 1
 146 286 l 5
 305 286 l 5
 305 591 l 1
 386 591 l 1
 386 286 l 5
 439 286 l 5
 399 193 l 5
 386 193 l 5
 386 -3 l 1
 305 -3 l 1
 305 193 l 5
EndSplineSet
Validated: 1
EndChar

StartChar: V
Encoding: 86 86 12
Width: 376
VWidth: 0
Flags: W
HStem: -3 21G<186 206> 571 20G<37 120.092 271.908 355>
VStem: 37 318
LayerCount: 2
Back
Fore
SplineSet
196 -3 m 0
 176 -3 126.433988685 6.98527871001 120 49 c 2
 37 591 l 1
 117 591 l 1
 196 80 l 1
 275 591 l 1
 355 591 l 1
 272 49 l 2
 265.56640625 6.9853515625 216 -3 196 -3 c 0
EndSplineSet
Validated: 1
EndChar

StartChar: G
Encoding: 71 71 13
Width: 376
VWidth: 0
Flags: W
HStem: -3 82<124.965 247.035> 512 82<124.965 247.035>
VStem: 37 81<89.8059 123 468 501.194> 254 81<88.7034 123 468 504.538>
LayerCount: 2
Back
Fore
SplineSet
254 185 m 5
 254 123 l 5
 254 89 229 79 186 79 c 4
 144 79 118 91 118 123 c 5
 118 468 l 5
 118 500 144 512 186 512 c 4
 229 512 254 502 254 468 c 5
 335 468 l 5
 335 553 291 594 218 594 c 5
 154 594 l 5
 81 594 37 555 37 477 c 5
 37 114 l 5
 37 36 81 -3 154 -3 c 5
 218 -3 l 5
 291 -3 335 45 335 123 c 5
 335 326 l 5
 186 236 l 5
 186 143 l 5
 254 185 l 5
EndSplineSet
Validated: 9
EndChar

StartChar: O
Encoding: 79 79 14
Width: 376
VWidth: 0
Flags: W
HStem: -3 82<124.965 247.035> 512 82<124.965 247.035>
VStem: 37 81<89.8059 501.194> 254 81<86.5781 504.422>
LayerCount: 2
Back
Fore
SplineSet
335 114 m 5
 335 36 291 -3 218 -3 c 5
 154 -3 l 5
 81 -3 37 36 37 114 c 5
 37 477 l 5
 37 555 81 594 154 594 c 5
 218 594 l 5
 291 594 335 555 335 477 c 5
 335 114 l 5
254 123 m 5
 254 468 l 5
 254 502 229 512 186 512 c 4
 144 512 118 500 118 468 c 5
 118 123 l 5
 118 91 144 79 186 79 c 4
 229 79 254 89 254 123 c 5
EndSplineSet
Validated: 1
EndChar

StartChar: Q
Encoding: 81 81 15
Width: 376
VWidth: 0
Flags: W
HStem: -3 82<124.965 248.366> 512 82<124.965 247.035>
VStem: 37 81<89.8059 501.194> 254 81<86.8333 504.422>
LayerCount: 2
Back
Fore
SplineSet
328 67 m 1
 400 19 l 1
 356 -43 l 1
 278 9 l 1
 261 1 241 -3 218 -3 c 1
 154 -3 l 1
 81 -3 37 36 37 114 c 1
 37 477 l 1
 37 555 81 594 154 594 c 1
 218 594 l 1
 291 594 335 555 335 477 c 1
 335 114 l 1
 335 96 332 81 328 67 c 1
254 123 m 1
 254 468 l 1
 254 502 229 512 186 512 c 0
 144 512 118 500 118 468 c 1
 118 123 l 1
 118 91 144 79 186 79 c 0
 229 79 254 89 254 123 c 1
EndSplineSet
Validated: 1
EndChar

StartChar: U
Encoding: 85 85 16
Width: 376
VWidth: 0
Flags: W
HStem: -3 82<125.12 247.035> 571 20G<37 118 254 335>
VStem: 37 81<89.8059 591> 254 81<86.5781 591>
LayerCount: 2
Back
Fore
SplineSet
335 591 m 1
 335 114 l 1
 335 36 291 -3 218 -3 c 1
 154 -3 l 1
 81.498046875 -3 37 36 37 114 c 1
 37 591 l 1
 118 591 l 1
 118 123 l 1
 118 91 143.916015625 79 186 79 c 0
 229.09765625 79 254 89 254 123 c 1
 254 591 l 1
 335 591 l 1
EndSplineSet
Validated: 1
EndChar

StartChar: C
Encoding: 67 67 17
Width: 376
VWidth: 0
Flags: W
HStem: -3 82<124.965 247.035> 512 82<124.965 247.035>
VStem: 37 81<89.8059 501.194> 254 81<88.7034 123 468 504.538>
LayerCount: 2
Back
Fore
SplineSet
335 123 m 5
 335 45 291 -3 218 -3 c 5
 154 -3 l 5
 81 -3 37 36 37 114 c 5
 37 477 l 5
 37 555 81 594 154 594 c 5
 218 594 l 5
 291 594 335 553 335 468 c 5
 254 468 l 5
 254 502 229 512 186 512 c 4
 144 512 118 500 118 468 c 5
 118 123 l 5
 118 91 144 79 186 79 c 4
 229 79 254 89 254 123 c 5
 335 123 l 5
EndSplineSet
Validated: 1
EndChar

StartChar: P
Encoding: 80 80 18
Width: 480
VWidth: 0
Flags: W
HStem: -3 21G<95 176> 267 93<176 363.752> 487 93<81 95 176 361.194> 571 20G<95 176>
VStem: 95 81<-3 267 360 487 580 591> 372 82<367.428 479.571>
LayerCount: 2
Back
Fore
SplineSet
327 360 m 1xec
 360 360 372 390 372 419 c 0
 372 452 362 487 328 487 c 2
 176 487 l 1
 176 360 l 1
 327 360 l 1xec
336 266 m 1
 176 267 l 1
 176 -3 l 1
 95 -3 l 1
 95 487 l 1
 41 487 l 1
 81 580 l 1
 95 580 l 1xec
 95 591 l 1
 176 591 l 1xdc
 176 580 l 1
 337 580 l 2
 415 580 454 536 454 463 c 1
 454 384 l 1
 454 311 415 267 336 266 c 1
EndSplineSet
EndChar

StartChar: R
Encoding: 82 82 19
Width: 480
VWidth: 0
Flags: W
HStem: -3 21G<95 176 322.889 406> 267 93<176 284> 487 93<81 95 176 361.194> 571 20G<95 176>
VStem: 95 81<-3 267 360 487 580 591> 372 82<366.82 479.571>
LayerCount: 2
Back
Fore
SplineSet
284 267 m 1xec
 176 267 l 1
 176 -3 l 1
 95 -3 l 1
 95 487 l 1
 41 487 l 1
 81 580 l 1
 95 580 l 1xec
 95 591 l 1
 176 591 l 1xdc
 176 580 l 1
 337 580 l 2
 415 580 454 536 454 463 c 1
 454 384 l 1
 454 321 424 278 363 269 c 1
 406 -3 l 1
 326 -3 l 1
 284 267 l 1xec
327 360 m 1
 360 360 372 390 372 419 c 0
 372 452 362 487 328 487 c 2
 176 487 l 1
 176 360 l 1
 327 360 l 1
EndSplineSet
EndChar

StartChar: X
Encoding: 88 88 20
Width: 454
VWidth: 0
Flags: W
HStem: -3 21G<34 140.155 314.052 420> 571 20G<26 129.189 324.811 428>
LayerCount: 2
Back
Fore
SplineSet
228 190 m 1
 130 -3 l 1
 34 -3 l 1
 181 285 l 1
 26 591 l 1
 119 591 l 1
 227 379 l 1
 335 591 l 1
 428 591 l 1
 274 285 l 1
 420 -3 l 1
 324 -3 l 1
 228 190 l 1
EndSplineSet
EndChar

StartChar: D
Encoding: 68 68 21
Width: 444
VWidth: 0
Flags: HW
HStem: -3 93<59 73 154 318.038> 487 93<59 73 154 315.035> 571 20G<73 154>
VStem: 73 81<-14 -3 90 487 580 591> 322 81<93.0908 478.157>
LayerCount: 2
Back
Fore
SplineSet
154 487 m 1xd8
 154 90 l 1
 154 90 212 89 254 89 c 0
 297 89 322 89 322 123 c 1
 322 443 l 1
 322 477 297 487 254 487 c 1
 154 487 l 1xd8
154 580 m 1
 286 580 l 1
 359 580 403 542 403 464 c 1
 403 114 l 1
 403 36 359 -3 286 -3 c 1
 154 -3 l 1
 154 -14 l 1
 73 -14 l 1
 73 -3 l 1
 59 -3 l 1
 19 90 l 1
 73 90 l 1
 73 487 l 1
 19 487 l 1
 59 580 l 1
 73 580 l 1xd8
 73 591 l 1
 154 591 l 1xb8
 154 580 l 1
EndSplineSet
EndChar

StartChar: B
Encoding: 66 66 22
Width: 480
VWidth: 0
Flags: W
HStem: -3 93<81 95 176 361.194> 267 93<176 361.875> 487 93<81 95 176 361.194> 571 20G<95 176>
VStem: 95 81<-14 -3 90 267 360 487 580 591> 372 82<100.656 259.302 368.385 479.571>
LayerCount: 2
Back
Fore
SplineSet
95 487 m 1xec
 41 487 l 1
 81 580 l 1
 95 580 l 1xec
 95 591 l 1
 176 591 l 1xdc
 176 580 l 1
 337 580 l 2
 415 580 454 536 454 463 c 1
 454 384 l 1
 454 355.559045556 437.080078125 330.51953125 426.215820312 312.6171875 c 5
 437.422851562 294.0625 454 270.604827181 454 243 c 1
 454 114 l 1
 454 41 415 -3 337 -3 c 2
 176 -3 l 1
 176 -14 l 1
 95 -14 l 1
 95 -3 l 1
 81 -3 l 1
 41 90 l 1
 95 90 l 1
 95 487 l 1xec
327 360 m 1
 360 360 372 395 372 424 c 0
 372 457 362 487 328 487 c 2
 176 487 l 1
 176 360 l 1
 327 360 l 1
176 90 m 1
 328 90 l 2
 348 90 372 111 372 145 c 2
 372 206 l 2
 372 235 361.993484236 265.899141386 327.298828125 266.104492188 c 2
 176 267 l 1
 176 90 l 1
EndSplineSet
EndChar

StartChar: Y
Encoding: 89 89 23
Width: 452
VWidth: 0
Flags: W
HStem: -3 21G<187 267> 571 20G<26 129.189 324.811 428>
VStem: 187 80<-3 280>
LayerCount: 2
Back
Fore
SplineSet
187 280 m 1
 26 591 l 1
 119 591 l 1
 227 379 l 1
 335 591 l 1
 428 591 l 1
 267 280 l 1
 267 -3 l 1
 187 -3 l 1
 187 280 l 1
EndSplineSet
EndChar

StartChar: Z
Encoding: 90 90 24
Width: 342
VWidth: 0
Flags: W
LayerCount: 2
Back
Fore
SplineSet
241 296 m 5
 290 400 l 6
 309 441 310 476 270 503 c 6
 96 620 l 5
 52 558 l 5
 217 447 l 6
 225 442 223 435 220 428 c 6
 161 305 l 5
 108 193 l 6
 89 152 88 117 128 90 c 6
 302 -27 l 5
 346 35 l 5
 181 146 l 6
 173 151 175 158 178 165 c 6
 241 296 l 5
EndSplineSet
EndChar
